# xmcd
#
# Track frame offsets:
#	150
#	12975
#	27482
#	46930
#	62802
#	80062
#	92762
#	115410
#	132602
#	153482
#	172837
#	189880
#	206222
#	222997
#	237040
#
# Disc length: 3403 seconds
#
# Revision: 0
# Processed by: cddbd v1.5PL3 Copyright (c) Steve Scherf et al.
# Submitted via: dBpowerAMP V4.0
#
DISCID=d10d490f
DTITLE=Various Artist - Brother To Brother
DYEAR=1994
DGENRE=Blues
TTITLE0=Blues With A Feeling - Nolan Struck
TTITLE1=Black Night - Nolan Struck
TTITLE2=Blues For Mississippi - Nolan Struck
TTITLE3=Miss Misery - Nolan Struck
TTITLE4=Mystery Train - Nolan Struck
TTITLE5=Reconsider Baby - Nolan Struck
TTITLE6=How Do You Wnat Your Thrill - Nolan Struck
TTITLE7=You Been Cheating On Me - Nolan Struck
TTITLE8=Rock Me Baby - King Edward
TTITLE9=You Don't Love Me - King Edward
TTITLE10=Mr. Charlie - King Edward
TTITLE11=Looking Good Again Tonight - King Edward
TTITLE12=Life Been Good To Me - King Edward
TTITLE13=You Got Something Good Going For You - King Edward
TTITLE14=You Don't know What Love Is - King Edward
EXTD=
EXTT0=
EXTT1=
EXTT2=
EXTT3=
EXTT4=
EXTT5=
EXTT6=
EXTT7=
EXTT8=
EXTT9=
EXTT10=
EXTT11=
EXTT12=
EXTT13=
EXTT14=
PLAYORDER=
